<svg width="512" height="512" viewBox="0 0 512 512" fill="none" xmlns="http://www.w3.org/2000/svg">
  <defs>
    <linearGradient id="bg" x1="56" y1="40" x2="442" y2="470" gradientUnits="userSpaceOnUse">
      <stop stop-color="#081329"/>
      <stop offset="0.55" stop-color="#07101E"/>
      <stop offset="1" stop-color="#020611"/>
    </linearGradient>
    <linearGradient id="frame" x1="52" y1="58" x2="448" y2="454" gradientUnits="userSpaceOnUse">
      <stop stop-color="#91A0B8"/>
      <stop offset="1" stop-color="#7E8CA8"/>
    </linearGradient>
    <linearGradient id="accent" x1="72" y1="436" x2="190" y2="342" gradientUnits="userSpaceOnUse">
      <stop stop-color="#21F35D"/>
      <stop offset="1" stop-color="#0BE3FF"/>
    </linearGradient>
    <linearGradient id="bar1" x1="0" y1="0" x2="0" y2="1">
      <stop stop-color="#27E7FF"/>
      <stop offset="1" stop-color="#0F9DDC"/>
    </linearGradient>
    <linearGradient id="bar2" x1="0" y1="0" x2="0" y2="1">
      <stop stop-color="#C9FF67"/>
      <stop offset="1" stop-color="#19E53B"/>
    </linearGradient>
    <filter id="greenGlow" x="262" y="22" width="210" height="238" filterUnits="userSpaceOnUse" color-interpolation-filters="sRGB">
      <feGaussianBlur stdDeviation="16" result="blur"/>
      <feMerge>
        <feMergeNode in="blur"/>
        <feMergeNode in="SourceGraphic"/>
      </feMerge>
    </filter>
    <filter id="softShadow" x="32" y="32" width="448" height="448" filterUnits="userSpaceOnUse" color-interpolation-filters="sRGB">
      <feDropShadow dx="0" dy="14" stdDeviation="24" flood-color="#020617" flood-opacity="0.55"/>
    </filter>
  </defs>

  <rect width="512" height="512" rx="104" fill="url(#bg)"/>
  <g filter="url(#softShadow)">
    <rect x="44" y="44" width="424" height="424" rx="64" stroke="url(#frame)" stroke-opacity="0.72" stroke-width="3.5"/>
    <path d="M58 430C66 404 84 378 118 360" stroke="url(#accent)" stroke-width="12" stroke-linecap="round"/>
    <path d="M50 450C62 414 86 382 132 352" stroke="url(#accent)" stroke-width="6" stroke-linecap="round" opacity="0.9"/>
  </g>

  <g transform="translate(48 108)">
    <circle cx="124" cy="124" r="108" fill="#F5FAFF"/>
    <circle cx="124" cy="124" r="108" fill="url(#bg)" opacity="0.08"/>
    <path d="M124 56L162 82L150 128H98L86 82L124 56Z" fill="#0F172A"/>
    <path d="M86 82L54 104L64 154L98 128L86 82Z" fill="#F8FAFC"/>
    <path d="M162 82L194 104L184 154L150 128L162 82Z" fill="#F8FAFC"/>
    <path d="M98 128L64 154L76 204L112 214L124 184L98 128Z" fill="#F8FAFC"/>
    <path d="M150 128L184 154L172 204L136 214L124 184L150 128Z" fill="#F8FAFC"/>
    <path d="M112 214L124 184L136 214L124 244L112 214Z" fill="#EAF2FB"/>
    <circle cx="124" cy="124" r="106.5" stroke="#2BDFFF" stroke-opacity="0.42" stroke-width="3"/>
  </g>

  <g transform="translate(296 120)">
    <path d="M6 222H170" stroke="url(#accent)" stroke-width="7" stroke-linecap="round" opacity="0.72"/>
    <rect x="26" y="118" width="32" height="104" rx="6" fill="url(#bar1)"/>
    <rect x="98" y="64" width="54" height="158" rx="7" fill="url(#bar2)"/>
    <path d="M6 112L66 66L94 84L164 12" stroke="#EFFFFF" stroke-width="16" stroke-linecap="round" stroke-linejoin="round" filter="url(#greenGlow)"/>
    <path d="M140 18L164 12L156 36" stroke="#F8FAFC" stroke-width="16" stroke-linecap="round" stroke-linejoin="round"/>
  </g>
</svg>
